# xmcd
#
# Track frame offsets:
#  150
#  30762
#  45762
#  61612
#  74637
#  84437
#  106012
#  119750
#  130612
#  145562
#  158450
#  174525
#  193787
#  212125
#  227375
#  239400
#  250750
#  266412
#  279362
#  288587
#  303937
#  321287
#
# Disc length: 4430 seconds
#
# Revision: 0
# Processed by: cddbd v1.5.1PL0 Copyright (c) Steve Scherf et al.
# Submitted via: AltoMP3_Maker 3.0
#
DISCID=21114c16
DTITLE=Johnny Cash - Heroes and Friends Volume 1
DYEAR=1900
DGENRE=
TTITLE0=The Good, The Bad, and The Two Cookie Kid
TTITLE1=Amazing Grace (w/ Joanne Cash-Yates)
TTITLE2=I Shall Be Free
TTITLE3=That Silver Haired Daddy Of Mine (w/ Tommy Cash)
TTITLE4=What's Good For You (Should Be Alright For Me) (w/ Curly Seckler)
TTITLE5=Forever Young
TTITLE6=The Death Of Me (w/ Levon Helm)
TTITLE7=The Human Condition (w/ Willie Nelson)
TTITLE8=Battle Of Nashville
TTITLE9=Get Rythm (w/ Martin Delray)
TTITLE10=Crazy Old Soldier (w/ Ray Charles)
TTITLE11=Suffer Little Children (w/ Glen Campbell)
TTITLE12=Give Me Back My Job (w/ Bono, Carl Perkins, Willie Nelson, and Tom Petty)
TTITLE13=The Love That Never Failed
TTITLE14=Love Me Tender (w/ Julie Andrews)
TTITLE15=Didn't It Rain
TTITLE16=I Still Miss Someone (w/ Earl Scruggs)
TTITLE17=Better Class Of Losers (w/ John Schneider)
TTITLE18=Jealous Loving Heart (w/ Ernest Tubb)
TTITLE19=Doin' My Time (w/ Marty Stuart)
TTITLE20=Woodcarver (w/ Sandy Kelly)
TTITLE21=Ragged Old Flag
EXTD=
EXTT0=
EXTT1=
EXTT2=
EXTT3=
EXTT4=
EXTT5=
EXTT6=
EXTT7=
EXTT8=
EXTT9=
EXTT10=
EXTT11=
EXTT12=
EXTT13=
EXTT14=
EXTT15=
EXTT16=
EXTT17=
EXTT18=
EXTT19=
EXTT20=
EXTT21=
PLAYORDER=
